<svg width="36" height="36" viewBox="0 0 36 36" xmlns="http://www.w3.org/2000/svg" xmlns:xlink="http://www.w3.org/1999/xlink"><title>Group 2</title><defs><path d="M29.75 12.6H15.4v5.95h8.26c-.77 3.78-3.99 5.95-8.26 5.95-5.04 0-9.1-4.06-9.1-9.1s4.06-9.1 9.1-9.1c2.17 0 4.13.77 5.67 2.03l4.48-4.48C22.82 1.47 19.32 0 15.4 0 6.86 0 0 6.86 0 15.4s6.86 15.4 15.4 15.4c7.7 0 14.7-5.6 14.7-15.4 0-.91-.14-1.89-.35-2.8z" id="a"/><path d="M29.75 12.6H15.4v5.95h8.26c-.77 3.78-3.99 5.95-8.26 5.95-5.04 0-9.1-4.06-9.1-9.1s4.06-9.1 9.1-9.1c2.17 0 4.13.77 5.67 2.03l4.48-4.48C22.82 1.47 19.32 0 15.4 0 6.86 0 0 6.86 0 15.4s6.86 15.4 15.4 15.4c7.7 0 14.7-5.6 14.7-15.4 0-.91-.14-1.89-.35-2.8z" id="c"/><path d="M29.75 12.6H15.4v5.95h8.26c-.77 3.78-3.99 5.95-8.26 5.95-5.04 0-9.1-4.06-9.1-9.1s4.06-9.1 9.1-9.1c2.17 0 4.13.77 5.67 2.03l4.48-4.48C22.82 1.47 19.32 0 15.4 0 6.86 0 0 6.86 0 15.4s6.86 15.4 15.4 15.4c7.7 0 14.7-5.6 14.7-15.4 0-.91-.14-1.89-.35-2.8z" id="e"/><path d="M29.75 12.6H15.4v5.95h8.26c-.77 3.78-3.99 5.95-8.26 5.95-5.04 0-9.1-4.06-9.1-9.1s4.06-9.1 9.1-9.1c2.17 0 4.13.77 5.67 2.03l4.48-4.48C22.82 1.47 19.32 0 15.4 0 6.86 0 0 6.86 0 15.4s6.86 15.4 15.4 15.4c7.7 0 14.7-5.6 14.7-15.4 0-.91-.14-1.89-.35-2.8z" id="g"/></defs><g fill="none" fill-rule="evenodd"><circle fill="#FFF" cx="18" cy="18" r="18"/><g transform="translate(2.7 2.6)"><mask id="b" fill="#fff"><use xlink:href="#a"/></mask><path fill="#FBBC05" mask="url(#b)" d="M-1.4 24.5V6.3l11.9 9.1"/></g><g transform="translate(2.7 2.6)"><mask id="d" fill="#fff"><use xlink:href="#c"/></mask><path fill="#EA4335" mask="url(#d)" d="M-1.4 6.3l11.9 9.1 4.9-4.27L32.2 8.4v-9.8H-1.4"/></g><g transform="translate(2.7 2.6)"><mask id="f" fill="#fff"><use xlink:href="#e"/></mask><path fill="#34A853" mask="url(#f)" d="M-1.4 24.5l21-16.1 5.53.7L32.2-1.4v33.6H-1.4"/></g><g transform="translate(2.7 2.6)"><mask id="h" fill="#fff"><use xlink:href="#g"/></mask><path fill="#4285F4" mask="url(#h)" d="M32.2 32.2L10.5 15.4l-2.8-2.1 24.5-7"/></g></g></svg>